<?xml version="1.0" encoding="utf-8"?>
<svg version="1.1" xmlns:xlink="http://www.w3.org/1999/xlink" width="10px" height="10px" xmlns="http://www.w3.org/2000/svg">
  <g transform="matrix(1 0 0 1 -315 -348 )">
    <path d="M 9.87630208333333 8.1484375  C 9.95876736111111 8.24739583333333  10 8.36458333333333  10 8.5  L 10 9.5  C 10 9.63541666666667  9.95876736111111 9.75260416666667  9.87630208333333 9.8515625  C 9.79383680555556 9.95052083333333  9.69618055555556 10  9.58333333333333 10  L 0.416666666666667 10  C 0.303819444444444 10  0.206163194444444 9.95052083333333  0.123697916666667 9.8515625  C 0.0412326388888889 9.75260416666667  0 9.63541666666667  0 9.5  L 0 8.5  C 0 8.36458333333333  0.0412326388888889 8.24739583333333  0.123697916666667 8.1484375  C 0.206163194444444 8.04947916666667  0.303819444444444 8  0.416666666666667 8  L 9.58333333333333 8  C 9.69618055555556 8  9.79383680555556 8.04947916666667  9.87630208333333 8.1484375  Z M 9.87630208333333 4.1484375  C 9.95876736111111 4.24739583333333  10 4.36458333333333  10 4.5  L 10 5.5  C 10 5.63541666666667  9.95876736111111 5.75260416666667  9.87630208333333 5.8515625  C 9.79383680555556 5.95052083333333  9.69618055555556 6  9.58333333333333 6  L 0.416666666666667 6  C 0.303819444444444 6  0.206163194444444 5.95052083333333  0.123697916666667 5.8515625  C 0.0412326388888889 5.75260416666667  0 5.63541666666667  0 5.5  L 0 4.5  C 0 4.36458333333333  0.0412326388888889 4.24739583333333  0.123697916666667 4.1484375  C 0.206163194444444 4.04947916666667  0.303819444444444 4  0.416666666666667 4  L 9.58333333333333 4  C 9.69618055555556 4  9.79383680555556 4.04947916666667  9.87630208333333 4.1484375  Z M 9.87630208333333 0.1484375  C 9.95876736111111 0.247395833333333  10 0.364583333333333  10 0.5  L 10 1.5  C 10 1.63541666666667  9.95876736111111 1.75260416666667  9.87630208333333 1.8515625  C 9.79383680555556 1.95052083333333  9.69618055555556 2  9.58333333333333 2  L 0.416666666666667 2  C 0.303819444444444 2  0.206163194444444 1.95052083333333  0.123697916666667 1.8515625  C 0.0412326388888889 1.75260416666667  0 1.63541666666667  0 1.5  L 0 0.5  C 0 0.364583333333333  0.0412326388888889 0.247395833333333  0.123697916666667 0.1484375  C 0.206163194444444 0.0494791666666661  0.303819444444444 0  0.416666666666667 0  L 9.58333333333333 0  C 9.69618055555556 0  9.79383680555556 0.0494791666666661  9.87630208333333 0.1484375  Z " fill-rule="nonzero" fill="#7f7f7f" stroke="none" transform="matrix(1 0 0 1 315 348 )" />
  </g>
</svg>