<?xml version="1.0" encoding="utf-8"?>
<svg version="1.1" xmlns:xlink="http://www.w3.org/1999/xlink" width="6px" height="14px" xmlns="http://www.w3.org/2000/svg">
  <g transform="matrix(1 0 0 1 -648 -390 )">
    <path d="M 5.92987012987013 3.19212962962963  C 5.9974025974026 3.27854938271605  6.01038961038961 3.37307098765432  5.96883116883117 3.47569444444444  C 5.92207792207792 3.57831790123457  5.84675324675325 3.62962962962963  5.74285714285714 3.62962962962963  L 4 3.62962962962963  L 4 13.7407407407407  C 3.9974025974026 13.8163580246914  3.97402597402597 13.8784722222222  3.92727272727273 13.9270833333333  C 3.88051948051948 13.9756944444444  3.82077922077922 14  3.74805194805195 14  L 2.25194805194805 14  C 2.17922077922078 14  2.11948051948052 13.9756944444444  2.07272727272727 13.9270833333333  C 2.02597402597403 13.8784722222222  2.0025974025974 13.8163580246914  2 13.7407407407407  L 2 3.62962962962963  L 0.257142857142857 3.62962962962963  C 0.148051948051948 3.62962962962963  0.0727272727272727 3.57831790123457  0.0311688311688312 3.47569444444444  C -0.0103896103896104 3.37307098765432  0.00259740259740259 3.27854938271605  0.0701298701298701 3.19212962962963  L 2.7974025974026 0.0810185185185193  C 2.84935064935065 0.0270061728395059  2.90909090909091 0  2.97662337662338 0  C 3.04935064935065 0  3.11168831168831 0.0270061728395059  3.16363636363636 0.0810185185185193  L 5.92987012987013 3.19212962962963  Z " fill-rule="nonzero" fill="#d9001b" stroke="none" transform="matrix(1 0 0 1 648 390 )" />
  </g>
</svg>