<?xml version="1.0" encoding="utf-8"?>
<svg version="1.1" xmlns:xlink="http://www.w3.org/1999/xlink" width="23px" height="23px" xmlns="http://www.w3.org/2000/svg">
  <g transform="matrix(1 0 0 1 -632 -296 )">
    <path d="M 5.7275390625 1.54231770833333  C 7.48947482638889 0.514105902777776  9.41362847222222 0  11.5 0  C 13.5863715277778 0  15.5105251736111 0.514105902777776  17.2724609375 1.54231770833333  C 19.0343967013889 2.57052951388889  20.4294704861111 3.96560329861111  21.4576822916667 5.7275390625  C 22.4858940972222 7.48947482638889  23 9.41362847222222  23 11.5  C 23 13.5863715277778  22.4858940972222 15.5105251736111  21.4576822916667 17.2724609375  C 20.4294704861111 19.0343967013889  19.0343967013889 20.4294704861111  17.2724609375 21.4576822916667  C 15.5105251736111 22.4858940972222  13.5863715277778 23  11.5 23  C 9.41362847222222 23  7.48947482638889 22.4858940972222  5.7275390625 21.4576822916667  C 3.96560329861111 20.4294704861111  2.57052951388889 19.0343967013889  1.54231770833333 17.2724609375  C 0.514105902777778 15.5105251736111  0 13.5863715277778  0 11.5  C 0 9.41362847222222  0.514105902777778 7.48947482638889  1.54231770833333 5.7275390625  C 2.57052951388889 3.96560329861111  3.96560329861111 2.57052951388889  5.7275390625 1.54231770833333  Z M 13.2819010416667 19.0244140625  C 13.3717447916667 18.9295789930556  13.4166666666667 18.8122829861111  13.4166666666667 18.6725260416667  L 13.4166666666667 15.8274739583333  C 13.4166666666667 15.6877170138889  13.3717447916667 15.5704210069444  13.2819010416667 15.4755859375  C 13.1920572916667 15.3807508680556  13.0822482638889 15.3333333333333  12.9524739583333 15.3333333333333  L 10.0774739583333 15.3333333333333  C 9.94769965277778 15.3333333333333  9.83289930555556 15.3832465277778  9.73307291666667 15.4830729166667  C 9.63324652777778 15.5828993055556  9.58333333333333 15.6976996527778  9.58333333333333 15.8274739583333  L 9.58333333333333 18.6725260416667  C 9.58333333333333 18.8023003472222  9.63324652777778 18.9171006944444  9.73307291666667 19.0169270833333  C 9.83289930555556 19.1167534722222  9.94769965277778 19.1666666666667  10.0774739583333 19.1666666666667  L 12.9524739583333 19.1666666666667  C 13.0822482638889 19.1666666666667  13.1920572916667 19.1192491319444  13.2819010416667 19.0244140625  Z M 13.2294921875 13.7835286458333  C 13.3243272569444 13.7086588541667  13.3767361111111 13.6213107638889  13.38671875 13.521484375  L 13.65625 4.22265625  C 13.65625 4.10286458333333  13.6063368055556 4.01302083333333  13.5065104166667 3.953125  C 13.4066840277778 3.87326388888889  13.2868923611111 3.83333333333333  13.1471354166667 3.83333333333333  L 9.85286458333333 3.83333333333333  C 9.71310763888889 3.83333333333333  9.59331597222222 3.87326388888889  9.49348958333333 3.953125  C 9.39366319444444 4.01302083333333  9.34375 4.10286458333333  9.34375 4.22265625  L 9.59830729166667 13.521484375  C 9.59830729166667 13.6213107638889  9.64822048611111 13.7086588541667  9.748046875 13.7835286458333  C 9.84787326388889 13.8583984375  9.96766493055556 13.8958333333333  10.107421875 13.8958333333333  L 12.8776041666667 13.8958333333333  C 13.0173611111111 13.8958333333333  13.1346571180556 13.8583984375  13.2294921875 13.7835286458333  Z " fill-rule="nonzero" fill="#d7d7d7" stroke="none" transform="matrix(1 0 0 1 632 296 )" />
  </g>
</svg>