<?xml version="1.0" encoding="utf-8"?>
<svg version="1.1" xmlns:xlink="http://www.w3.org/1999/xlink" width="8px" height="12px" xmlns="http://www.w3.org/2000/svg">
  <g transform="matrix(1 0 0 1 -1220 -460 )">
    <path d="M 7.8515625 7.25284090909091  C 7.95052083333333 7.36079545454545  8 7.48863636363636  8 7.63636363636364  C 8 7.78409090909091  7.95052083333333 7.91193181818182  7.8515625 8.01988636363636  L 4.3515625 11.8380681818182  C 4.25260416666667 11.9460227272727  4.13541666666667 12  4 12  C 3.86458333333333 12  3.74739583333333 11.9460227272727  3.6484375 11.8380681818182  L 0.1484375 8.01988636363636  C 0.0494791666666667 7.91193181818182  0 7.78409090909091  0 7.63636363636364  C 0 7.48863636363636  0.0494791666666667 7.36079545454545  0.1484375 7.25284090909091  C 0.247395833333333 7.14488636363636  0.364583333333333 7.09090909090909  0.5 7.09090909090909  L 7.5 7.09090909090909  C 7.63541666666667 7.09090909090909  7.75260416666667 7.14488636363636  7.8515625 7.25284090909091  Z M 7.8515625 3.98011363636364  C 7.95052083333333 4.08806818181818  8 4.21590909090909  8 4.36363636363636  C 8 4.51136363636363  7.95052083333333 4.63920454545455  7.8515625 4.74715909090909  C 7.75260416666667 4.85511363636364  7.63541666666667 4.90909090909091  7.5 4.90909090909091  L 0.5 4.90909090909091  C 0.364583333333333 4.90909090909091  0.247395833333333 4.85511363636364  0.1484375 4.74715909090909  C 0.0494791666666667 4.63920454545455  0 4.51136363636363  0 4.36363636363636  C 0 4.21590909090909  0.0494791666666667 4.08806818181818  0.1484375 3.98011363636364  L 3.6484375 0.161931818181819  C 3.74739583333333 0.0539772727272716  3.86458333333333 0  4 0  C 4.13541666666667 0  4.25260416666667 0.0539772727272716  4.3515625 0.161931818181819  L 7.8515625 3.98011363636364  Z " fill-rule="nonzero" fill="#000000" stroke="none" fill-opacity="0.847058823529412" transform="matrix(1 0 0 1 1220 460 )" />
  </g>
</svg>