<?xml version="1.0" encoding="utf-8"?>
<svg version="1.1" xmlns:xlink="http://www.w3.org/1999/xlink" width="24px" height="16px" xmlns="http://www.w3.org/2000/svg">
  <g transform="matrix(1 0 0 1 -1457 -176 )">
    <path d="M 6.48214285714286 11.9545454545455  C 6.73214285714286 12.1666666666667  6.85714285714286 12.4242424242424  6.85714285714286 12.7272727272727  L 6.85714285714286 14.9090909090909  C 6.85714285714286 15.2121212121212  6.73214285714286 15.469696969697  6.48214285714286 15.6818181818182  C 6.23214285714286 15.8939393939394  5.92857142857143 16  5.57142857142857 16  L 1.28571428571429 16  C 0.928571428571429 16  0.625 15.8939393939394  0.375 15.6818181818182  C 0.125 15.469696969697  0 15.2121212121212  0 14.9090909090909  L 0 12.7272727272727  C 0 12.4242424242424  0.125 12.1666666666667  0.375 11.9545454545455  C 0.625 11.7424242424242  0.928571428571429 11.6363636363636  1.28571428571429 11.6363636363636  L 5.57142857142857 11.6363636363636  C 5.92857142857143 11.6363636363636  6.23214285714286 11.7424242424242  6.48214285714286 11.9545454545455  Z M 6.48214285714286 6.13636363636364  C 6.73214285714286 6.34848484848485  6.85714285714286 6.60606060606061  6.85714285714286 6.90909090909091  L 6.85714285714286 9.09090909090909  C 6.85714285714286 9.39393939393939  6.73214285714286 9.65151515151515  6.48214285714286 9.86363636363636  C 6.23214285714286 10.0757575757576  5.92857142857143 10.1818181818182  5.57142857142857 10.1818181818182  L 1.28571428571429 10.1818181818182  C 0.928571428571429 10.1818181818182  0.625 10.0757575757576  0.375 9.86363636363636  C 0.125 9.65151515151515  0 9.39393939393939  0 9.09090909090909  L 0 6.90909090909091  C 0 6.60606060606061  0.125 6.34848484848485  0.375 6.13636363636364  C 0.625 5.92424242424242  0.928571428571429 5.81818181818182  1.28571428571429 5.81818181818182  L 5.57142857142857 5.81818181818182  C 5.92857142857143 5.81818181818182  6.23214285714286 5.92424242424242  6.48214285714286 6.13636363636364  Z M 15.0535714285714 11.9545454545455  C 15.3035714285714 12.1666666666667  15.4285714285714 12.4242424242424  15.4285714285714 12.7272727272727  L 15.4285714285714 14.9090909090909  C 15.4285714285714 15.2121212121212  15.3035714285714 15.469696969697  15.0535714285714 15.6818181818182  C 14.8035714285714 15.8939393939394  14.5 16  14.1428571428571 16  L 9.85714285714286 16  C 9.5 16  9.19642857142857 15.8939393939394  8.94642857142857 15.6818181818182  C 8.69642857142857 15.469696969697  8.57142857142857 15.2121212121212  8.57142857142857 14.9090909090909  L 8.57142857142857 12.7272727272727  C 8.57142857142857 12.4242424242424  8.69642857142857 12.1666666666667  8.94642857142857 11.9545454545455  C 9.19642857142857 11.7424242424242  9.5 11.6363636363636  9.85714285714286 11.6363636363636  L 14.1428571428571 11.6363636363636  C 14.5 11.6363636363636  14.8035714285714 11.7424242424242  15.0535714285714 11.9545454545455  Z M 6.48214285714286 0.318181818181818  C 6.73214285714286 0.530303030303029  6.85714285714286 0.787878787878787  6.85714285714286 1.09090909090909  L 6.85714285714286 3.27272727272727  C 6.85714285714286 3.57575757575757  6.73214285714286 3.83333333333333  6.48214285714286 4.04545454545455  C 6.23214285714286 4.25757575757576  5.92857142857143 4.36363636363636  5.57142857142857 4.36363636363636  L 1.28571428571429 4.36363636363636  C 0.928571428571429 4.36363636363636  0.625 4.25757575757576  0.375 4.04545454545455  C 0.125 3.83333333333333  0 3.57575757575757  0 3.27272727272727  L 0 1.09090909090909  C 0 0.787878787878787  0.125 0.530303030303029  0.375 0.318181818181818  C 0.625 0.106060606060606  0.928571428571429 0  1.28571428571429 0  L 5.57142857142857 0  C 5.92857142857143 0  6.23214285714286 0.106060606060606  6.48214285714286 0.318181818181818  Z M 15.0535714285714 6.13636363636364  C 15.3035714285714 6.34848484848485  15.4285714285714 6.60606060606061  15.4285714285714 6.90909090909091  L 15.4285714285714 9.09090909090909  C 15.4285714285714 9.39393939393939  15.3035714285714 9.65151515151515  15.0535714285714 9.86363636363636  C 14.8035714285714 10.0757575757576  14.5 10.1818181818182  14.1428571428571 10.1818181818182  L 9.85714285714286 10.1818181818182  C 9.5 10.1818181818182  9.19642857142857 10.0757575757576  8.94642857142857 9.86363636363636  C 8.69642857142857 9.65151515151515  8.57142857142857 9.39393939393939  8.57142857142857 9.09090909090909  L 8.57142857142857 6.90909090909091  C 8.57142857142857 6.60606060606061  8.69642857142857 6.34848484848485  8.94642857142857 6.13636363636364  C 9.19642857142857 5.92424242424242  9.5 5.81818181818182  9.85714285714286 5.81818181818182  L 14.1428571428571 5.81818181818182  C 14.5 5.81818181818182  14.8035714285714 5.92424242424242  15.0535714285714 6.13636363636364  Z M 23.625 11.9545454545455  C 23.875 12.1666666666667  24 12.4242424242424  24 12.7272727272727  L 24 14.9090909090909  C 24 15.2121212121212  23.875 15.469696969697  23.625 15.6818181818182  C 23.375 15.8939393939394  23.0714285714286 16  22.7142857142857 16  L 18.4285714285714 16  C 18.0714285714286 16  17.7678571428571 15.8939393939394  17.5178571428571 15.6818181818182  C 17.2678571428571 15.469696969697  17.1428571428571 15.2121212121212  17.1428571428571 14.9090909090909  L 17.1428571428571 12.7272727272727  C 17.1428571428571 12.4242424242424  17.2678571428571 12.1666666666667  17.5178571428571 11.9545454545455  C 17.7678571428571 11.7424242424242  18.0714285714286 11.6363636363636  18.4285714285714 11.6363636363636  L 22.7142857142857 11.6363636363636  C 23.0714285714286 11.6363636363636  23.375 11.7424242424242  23.625 11.9545454545455  Z M 15.0535714285714 0.318181818181818  C 15.3035714285714 0.530303030303029  15.4285714285714 0.787878787878787  15.4285714285714 1.09090909090909  L 15.4285714285714 3.27272727272727  C 15.4285714285714 3.57575757575757  15.3035714285714 3.83333333333333  15.0535714285714 4.04545454545455  C 14.8035714285714 4.25757575757576  14.5 4.36363636363636  14.1428571428571 4.36363636363636  L 9.85714285714286 4.36363636363636  C 9.5 4.36363636363636  9.19642857142857 4.25757575757576  8.94642857142857 4.04545454545455  C 8.69642857142857 3.83333333333333  8.57142857142857 3.57575757575757  8.57142857142857 3.27272727272727  L 8.57142857142857 1.09090909090909  C 8.57142857142857 0.787878787878787  8.69642857142857 0.530303030303029  8.94642857142857 0.318181818181818  C 9.19642857142857 0.106060606060606  9.5 0  9.85714285714286 0  L 14.1428571428571 0  C 14.5 0  14.8035714285714 0.106060606060606  15.0535714285714 0.318181818181818  Z M 23.625 6.13636363636364  C 23.875 6.34848484848485  24 6.60606060606061  24 6.90909090909091  L 24 9.09090909090909  C 24 9.39393939393939  23.875 9.65151515151515  23.625 9.86363636363636  C 23.375 10.0757575757576  23.0714285714286 10.1818181818182  22.7142857142857 10.1818181818182  L 18.4285714285714 10.1818181818182  C 18.0714285714286 10.1818181818182  17.7678571428571 10.0757575757576  17.5178571428571 9.86363636363636  C 17.2678571428571 9.65151515151515  17.1428571428571 9.39393939393939  17.1428571428571 9.09090909090909  L 17.1428571428571 6.90909090909091  C 17.1428571428571 6.60606060606061  17.2678571428571 6.34848484848485  17.5178571428571 6.13636363636364  C 17.7678571428571 5.92424242424242  18.0714285714286 5.81818181818182  18.4285714285714 5.81818181818182  L 22.7142857142857 5.81818181818182  C 23.0714285714286 5.81818181818182  23.375 5.92424242424242  23.625 6.13636363636364  Z M 23.625 0.318181818181818  C 23.875 0.530303030303029  24 0.787878787878787  24 1.09090909090909  L 24 3.27272727272727  C 24 3.57575757575757  23.875 3.83333333333333  23.625 4.04545454545455  C 23.375 4.25757575757576  23.0714285714286 4.36363636363636  22.7142857142857 4.36363636363636  L 18.4285714285714 4.36363636363636  C 18.0714285714286 4.36363636363636  17.7678571428571 4.25757575757576  17.5178571428571 4.04545454545455  C 17.2678571428571 3.83333333333333  17.1428571428571 3.57575757575757  17.1428571428571 3.27272727272727  L 17.1428571428571 1.09090909090909  C 17.1428571428571 0.787878787878787  17.2678571428571 0.530303030303029  17.5178571428571 0.318181818181818  C 17.7678571428571 0.106060606060606  18.0714285714286 0  18.4285714285714 0  L 22.7142857142857 0  C 23.0714285714286 0  23.375 0.106060606060606  23.625 0.318181818181818  Z " fill-rule="nonzero" fill="#757575" stroke="none" transform="matrix(1 0 0 1 1457 176 )" />
  </g>
</svg>