<?xml version="1.0" encoding="utf-8"?>
<svg version="1.1" xmlns:xlink="http://www.w3.org/1999/xlink" width="88px" height="32px" xmlns="http://www.w3.org/2000/svg">
  <defs>
    <mask fill="white" id="clip12">
      <path d="M 0 28  L 0 4  C 0 1.75999999999999  1.76 0  4 0  L 59.6666666666679 0  L 88 0  L 88 32  L 4 32  C 1.76 32  0 30.24  0 28  Z " fill-rule="evenodd" />
    </mask>
  </defs>
  <g transform="matrix(1 0 0 1 -53 -271 )">
    <path d="M 0 28  L 0 4  C 0 1.75999999999999  1.76 0  4 0  L 59.6666666666679 0  L 88 0  L 88 32  L 4 32  C 1.76 32  0 30.24  0 28  Z " fill-rule="nonzero" fill="#ffffff" stroke="none" transform="matrix(1 0 0 1 53 271 )" />
    <path d="M 0 28  L 0 4  C 0 1.75999999999999  1.76 0  4 0  L 59.6666666666679 0  L 88 0  L 88 32  L 4 32  C 1.76 32  0 30.24  0 28  Z " stroke-width="2" stroke="#169bd5" fill="none" transform="matrix(1 0 0 1 53 271 )" mask="url(#clip12)" />
  </g>
</svg>