<?xml version="1.0" encoding="utf-8"?>
<svg version="1.1" xmlns:xlink="http://www.w3.org/1999/xlink" width="11px" height="11px" xmlns="http://www.w3.org/2000/svg">
  <g transform="matrix(1 0 0 1 -60 -475 )">
    <path d="M 6.35221354166667 2.814453125  C 6.39518229166667 2.857421875  6.41666666666667 2.91232638888889  6.41666666666667 2.97916666666667  L 6.41666666666667 6.1875  C 6.41666666666667 6.25434027777778  6.39518229166667 6.30924479166667  6.35221354166667 6.35221354166667  C 6.30924479166667 6.39518229166667  6.25434027777778 6.41666666666667  6.1875 6.41666666666667  L 3.89583333333333 6.41666666666667  C 3.82899305555556 6.41666666666667  3.77408854166667 6.39518229166667  3.73111979166667 6.35221354166667  C 3.68815104166667 6.30924479166667  3.66666666666667 6.25434027777778  3.66666666666667 6.1875  L 3.66666666666667 5.72916666666667  C 3.66666666666667 5.66232638888889  3.68815104166667 5.607421875  3.73111979166667 5.564453125  C 3.77408854166667 5.521484375  3.82899305555556 5.5  3.89583333333333 5.5  L 5.5 5.5  L 5.5 2.97916666666667  C 5.5 2.91232638888889  5.521484375 2.857421875  5.564453125 2.814453125  C 5.607421875 2.771484375  5.66232638888889 2.75  5.72916666666667 2.75  L 6.1875 2.75  C 6.25434027777778 2.75  6.30924479166667 2.771484375  6.35221354166667 2.814453125  Z M 8.873046875 7.455078125  C 9.22157118055556 6.85828993055555  9.39583333333333 6.20659722222222  9.39583333333333 5.5  C 9.39583333333333 4.79340277777778  9.22157118055556 4.14171006944444  8.873046875 3.544921875  C 8.52452256944445 2.94813368055555  8.05186631944445 2.47547743055555  7.455078125 2.126953125  C 6.85828993055556 1.77842881944444  6.20659722222222 1.60416666666667  5.5 1.60416666666667  C 4.79340277777778 1.60416666666667  4.14171006944444 1.77842881944444  3.544921875 2.126953125  C 2.94813368055556 2.47547743055555  2.47547743055556 2.94813368055555  2.126953125 3.544921875  C 1.77842881944444 4.14171006944444  1.60416666666667 4.79340277777778  1.60416666666667 5.5  C 1.60416666666667 6.20659722222222  1.77842881944444 6.85828993055555  2.126953125 7.455078125  C 2.47547743055556 8.05186631944444  2.94813368055556 8.52452256944444  3.544921875 8.873046875  C 4.14171006944444 9.22157118055556  4.79340277777778 9.39583333333333  5.5 9.39583333333333  C 6.20659722222222 9.39583333333333  6.85828993055556 9.22157118055556  7.455078125 8.873046875  C 8.05186631944445 8.52452256944444  8.52452256944445 8.05186631944444  8.873046875 7.455078125  Z M 10.2623697916667 2.7392578125  C 10.7541232638889 3.58192274305555  11 4.50217013888889  11 5.5  C 11 6.49782986111111  10.7541232638889 7.41807725694444  10.2623697916667 8.2607421875  C 9.77061631944445 9.10340711805556  9.10340711805556 9.77061631944444  8.2607421875 10.2623697916667  C 7.41807725694445 10.7541232638889  6.49782986111111 11  5.5 11  C 4.50217013888889 11  3.58192274305556 10.7541232638889  2.7392578125 10.2623697916667  C 1.89659288194444 9.77061631944444  1.22938368055556 9.10340711805556  0.737630208333333 8.2607421875  C 0.245876736111111 7.41807725694444  0 6.49782986111111  0 5.5  C 0 4.50217013888889  0.245876736111111 3.58192274305555  0.737630208333333 2.7392578125  C 1.22938368055556 1.89659288194444  1.89659288194444 1.22938368055555  2.7392578125 0.737630208333333  C 3.58192274305556 0.24587673611111  4.50217013888889 0  5.5 0  C 6.49782986111111 0  7.41807725694445 0.24587673611111  8.2607421875 0.737630208333333  C 9.10340711805556 1.22938368055555  9.77061631944445 1.89659288194444  10.2623697916667 2.7392578125  Z " fill-rule="nonzero" fill="#aaaaaa" stroke="none" transform="matrix(1 0 0 1 60 475 )" />
  </g>
</svg>