<?xml version="1.0" encoding="utf-8"?>
<svg version="1.1" xmlns:xlink="http://www.w3.org/1999/xlink" width="387px" height="49px" xmlns="http://www.w3.org/2000/svg">
  <g transform="matrix(1 0 0 1 -44 -431 )">
    <path d="M 1.5 0  L 1.5 43  C 0.513297872340433 46.0799999999999  1.82042206290471 48  4.98233695652174 48.5  L 381.017663043478 48.5  C 384.179577937095 48  385.48670212766 46.0799999999999  385.5 43  L 385.5 0  L 1.5 0  Z " fill-rule="nonzero" fill="#ffffff" stroke="none" transform="matrix(1 0 0 1 44 431 )" />
    <path d="M 1.5 0  L 1.5 43  C 0.513297872340433 46.0799999999999  1.82042206290471 48  4.98233695652174 48.5  L 381.017663043478 48.5  C 384.179577937095 48  385.48670212766 46.0799999999999  385.5 43  L 385.5 0  " stroke-width="1" stroke="#e4e4e4" fill="none" transform="matrix(1 0 0 1 44 431 )" />
  </g>
</svg>