<?xml version="1.0" encoding="utf-8"?>
<svg version="1.1" xmlns:xlink="http://www.w3.org/1999/xlink" width="79px" height="51px" xmlns="http://www.w3.org/2000/svg">
  <defs>
    <mask fill="white" id="clip8">
      <path d="M 70.8736979166667 39.611328125  C 71.28515625 39.345703125  71.6623263888889 38.8919270833333  72.0052083333333 38  L 59.25 38  L 59.25 46.484375  C 60.2443576388889 46.2630208333333  60.947265625 46.01953125  61.3587239583333 45.75390625  L 70.8736979166667 39.611328125  Z M 54.1067708333333 34.9296875  C 55.0668402777778 34.3098958333333  56.2326388888889 34  57.6041666666667 34  L 72 34  L 72 5  L 7 5  L 7 46  L 52.6666666666667 46  L 52.6666666666667 37.1875  C 52.6666666666667 36.3020833333333  53.1467013888889 35.5494791666667  54.1067708333333 34.9296875  Z M 77.5598958333333 0.929687499999998  C 78.5199652777778 1.54947916666666  79 2.30208333333333  79 3.1875  L 79 37.1875  C 79 38.0729166666667  78.6571180555556 39.046875  77.9713541666667 40.109375  C 77.2855902777778 41.171875  76.4626736111111 42.0130208333333  75.5026041666667 42.6328125  L 66.0390625 48.7421875  C 65.0789930555556 49.3619791666667  63.7760416666667 49.8932291666667  62.1302083333333 50.3359375  C 60.484375 50.7786458333333  58.9756944444444 51  57.6041666666667 51  L 4.9375 51  C 3.56597222222222 51  2.40017361111111 50.6901041666667  1.44010416666667 50.0703125  C 0.480034722222222 49.4505208333333  0 48.6979166666667  0 47.8125  L 0 3.1875  C 0 2.30208333333333  0.480034722222222 1.54947916666666  1.44010416666667 0.929687499999998  C 2.40017361111111 0.309895833333331  3.56597222222222 0  4.9375 0  L 74.0625 0  C 75.4340277777778 0  76.5998263888889 0.309895833333331  77.5598958333333 0.929687499999998  Z " fill-rule="evenodd" />
    </mask>
  </defs>
  <g transform="matrix(1 0 0 1 -1123 -822 )">
    <path d="M 70.8736979166667 39.611328125  C 71.28515625 39.345703125  71.6623263888889 38.8919270833333  72.0052083333333 38  L 59.25 38  L 59.25 46.484375  C 60.2443576388889 46.2630208333333  60.947265625 46.01953125  61.3587239583333 45.75390625  L 70.8736979166667 39.611328125  Z M 54.1067708333333 34.9296875  C 55.0668402777778 34.3098958333333  56.2326388888889 34  57.6041666666667 34  L 72 34  L 72 5  L 7 5  L 7 46  L 52.6666666666667 46  L 52.6666666666667 37.1875  C 52.6666666666667 36.3020833333333  53.1467013888889 35.5494791666667  54.1067708333333 34.9296875  Z M 77.5598958333333 0.929687499999998  C 78.5199652777778 1.54947916666666  79 2.30208333333333  79 3.1875  L 79 37.1875  C 79 38.0729166666667  78.6571180555556 39.046875  77.9713541666667 40.109375  C 77.2855902777778 41.171875  76.4626736111111 42.0130208333333  75.5026041666667 42.6328125  L 66.0390625 48.7421875  C 65.0789930555556 49.3619791666667  63.7760416666667 49.8932291666667  62.1302083333333 50.3359375  C 60.484375 50.7786458333333  58.9756944444444 51  57.6041666666667 51  L 4.9375 51  C 3.56597222222222 51  2.40017361111111 50.6901041666667  1.44010416666667 50.0703125  C 0.480034722222222 49.4505208333333  0 48.6979166666667  0 47.8125  L 0 3.1875  C 0 2.30208333333333  0.480034722222222 1.54947916666666  1.44010416666667 0.929687499999998  C 2.40017361111111 0.309895833333331  3.56597222222222 0  4.9375 0  L 74.0625 0  C 75.4340277777778 0  76.5998263888889 0.309895833333331  77.5598958333333 0.929687499999998  Z " fill-rule="nonzero" fill="#dd6549" stroke="none" transform="matrix(1 0 0 1 1123 822 )" />
    <path d="M 70.8736979166667 39.611328125  C 71.28515625 39.345703125  71.6623263888889 38.8919270833333  72.0052083333333 38  L 59.25 38  L 59.25 46.484375  C 60.2443576388889 46.2630208333333  60.947265625 46.01953125  61.3587239583333 45.75390625  L 70.8736979166667 39.611328125  Z " stroke-width="2" stroke="#dd6549" fill="none" transform="matrix(1 0 0 1 1123 822 )" mask="url(#clip8)" />
    <path d="M 54.1067708333333 34.9296875  C 55.0668402777778 34.3098958333333  56.2326388888889 34  57.6041666666667 34  L 72 34  L 72 5  L 7 5  L 7 46  L 52.6666666666667 46  L 52.6666666666667 37.1875  C 52.6666666666667 36.3020833333333  53.1467013888889 35.5494791666667  54.1067708333333 34.9296875  Z " stroke-width="2" stroke="#dd6549" fill="none" transform="matrix(1 0 0 1 1123 822 )" mask="url(#clip8)" />
    <path d="M 77.5598958333333 0.929687499999998  C 78.5199652777778 1.54947916666666  79 2.30208333333333  79 3.1875  L 79 37.1875  C 79 38.0729166666667  78.6571180555556 39.046875  77.9713541666667 40.109375  C 77.2855902777778 41.171875  76.4626736111111 42.0130208333333  75.5026041666667 42.6328125  L 66.0390625 48.7421875  C 65.0789930555556 49.3619791666667  63.7760416666667 49.8932291666667  62.1302083333333 50.3359375  C 60.484375 50.7786458333333  58.9756944444444 51  57.6041666666667 51  L 4.9375 51  C 3.56597222222222 51  2.40017361111111 50.6901041666667  1.44010416666667 50.0703125  C 0.480034722222222 49.4505208333333  0 48.6979166666667  0 47.8125  L 0 3.1875  C 0 2.30208333333333  0.480034722222222 1.54947916666666  1.44010416666667 0.929687499999998  C 2.40017361111111 0.309895833333331  3.56597222222222 0  4.9375 0  L 74.0625 0  C 75.4340277777778 0  76.5998263888889 0.309895833333331  77.5598958333333 0.929687499999998  Z " stroke-width="2" stroke="#dd6549" fill="none" transform="matrix(1 0 0 1 1123 822 )" mask="url(#clip8)" />
  </g>
</svg>