<?xml version="1.0" encoding="utf-8"?>
<svg version="1.1" xmlns:xlink="http://www.w3.org/1999/xlink" width="25px" height="16px" xmlns="http://www.w3.org/2000/svg">
  <g transform="matrix(1 0 0 1 -1582 -209 )">
    <path d="M 3.43889508928571 13.1988636363636  C 3.52725074404762 13.2708333333333  3.57142857142857 13.3560606060606  3.57142857142857 13.4545454545455  L 3.57142857142857 15.6363636363636  C 3.57142857142857 15.7348484848485  3.52725074404762 15.8200757575758  3.43889508928571 15.8920454545455  C 3.35053943452381 15.9640151515152  3.24590773809524 16  3.125 16  L 0.446428571428571 16  C 0.325520833333333 16  0.220889136904762 15.9640151515152  0.132533482142857 15.8920454545455  C 0.0441778273809524 15.8200757575758  0 15.7348484848485  0 15.6363636363636  L 0 13.4545454545455  C 0 13.3560606060606  0.0441778273809524 13.2708333333333  0.132533482142857 13.1988636363636  C 0.220889136904762 13.1268939393939  0.325520833333333 13.0909090909091  0.446428571428571 13.0909090909091  L 3.125 13.0909090909091  C 3.24590773809524 13.0909090909091  3.35053943452381 13.1268939393939  3.43889508928571 13.1988636363636  Z M 3.43889508928571 8.83522727272727  C 3.52725074404762 8.90719696969697  3.57142857142857 8.99242424242424  3.57142857142857 9.09090909090909  L 3.57142857142857 11.2727272727273  C 3.57142857142857 11.3712121212121  3.52725074404762 11.4564393939394  3.43889508928571 11.5284090909091  C 3.35053943452381 11.6003787878788  3.24590773809524 11.6363636363636  3.125 11.6363636363636  L 0.446428571428571 11.6363636363636  C 0.325520833333333 11.6363636363636  0.220889136904762 11.6003787878788  0.132533482142857 11.5284090909091  C 0.0441778273809524 11.4564393939394  0 11.3712121212121  0 11.2727272727273  L 0 9.09090909090909  C 0 8.99242424242424  0.0441778273809524 8.90719696969697  0.132533482142857 8.83522727272727  C 0.220889136904762 8.76325757575757  0.325520833333333 8.72727272727273  0.446428571428571 8.72727272727273  L 3.125 8.72727272727273  C 3.24590773809524 8.72727272727273  3.35053943452381 8.76325757575757  3.43889508928571 8.83522727272727  Z M 3.43889508928571 4.47159090909091  C 3.52725074404762 4.54356060606061  3.57142857142857 4.62878787878788  3.57142857142857 4.72727272727273  L 3.57142857142857 6.90909090909091  C 3.57142857142857 7.00757575757576  3.52725074404762 7.09280303030303  3.43889508928571 7.16477272727273  C 3.35053943452381 7.23674242424242  3.24590773809524 7.27272727272727  3.125 7.27272727272727  L 0.446428571428571 7.27272727272727  C 0.325520833333333 7.27272727272727  0.220889136904762 7.23674242424242  0.132533482142857 7.16477272727273  C 0.0441778273809524 7.09280303030303  0 7.00757575757576  0 6.90909090909091  L 0 4.72727272727273  C 0 4.62878787878788  0.0441778273809524 4.54356060606061  0.132533482142857 4.47159090909091  C 0.220889136904762 4.39962121212121  0.325520833333333 4.36363636363636  0.446428571428571 4.36363636363636  L 3.125 4.36363636363636  C 3.24590773809524 4.36363636363636  3.35053943452381 4.39962121212121  3.43889508928571 4.47159090909091  Z M 24.8674665178571 13.1988636363636  C 24.9558221726191 13.2708333333333  25 13.3560606060606  25 13.4545454545455  L 25 15.6363636363636  C 25 15.7348484848485  24.9558221726191 15.8200757575758  24.8674665178571 15.8920454545455  C 24.7791108630952 15.9640151515152  24.6744791666667 16  24.5535714285714 16  L 5.80357142857143 16  C 5.68266369047619 16  5.57803199404762 15.9640151515152  5.48967633928571 15.8920454545455  C 5.40132068452381 15.8200757575758  5.35714285714286 15.7348484848485  5.35714285714286 15.6363636363636  L 5.35714285714286 13.4545454545455  C 5.35714285714286 13.3560606060606  5.40132068452381 13.2708333333333  5.48967633928571 13.1988636363636  C 5.57803199404762 13.1268939393939  5.68266369047619 13.0909090909091  5.80357142857143 13  L 24.5535714285714 13  C 24.6744791666667 13.0909090909091  24.7791108630952 13.1268939393939  24.8674665178571 13.1988636363636  Z M 3.43889508928571 0.107954545454545  C 3.52725074404762 0.179924242424242  3.57142857142857 0.265151515151514  3.57142857142857 0.363636363636363  L 3.57142857142857 2.54545454545455  C 3.57142857142857 2.64393939393939  3.52725074404762 2.72916666666666  3.43889508928571 2.80113636363636  C 3.35053943452381 2.87310606060606  3.24590773809524 2.90909090909091  3.125 2.90909090909091  L 0.446428571428571 2.90909090909091  C 0.325520833333333 2.90909090909091  0.220889136904762 2.87310606060606  0.132533482142857 2.80113636363636  C 0.0441778273809524 2.72916666666666  0 2.64393939393939  0 2.54545454545455  L 0 0.363636363636363  C 0 0.265151515151514  0.0441778273809524 0.179924242424242  0.132533482142857 0.107954545454545  C 0.220889136904762 0.035984848484846  0.325520833333333 0  0.446428571428571 0  L 3.125 0  C 3.24590773809524 0  3.35053943452381 0.035984848484846  3.43889508928571 0.107954545454545  Z M 24.8674665178571 8.83522727272727  C 24.9558221726191 8.90719696969697  25 8.99242424242424  25 9.09090909090909  L 25 11.2727272727273  C 25 11.3712121212121  24.9558221726191 11.4564393939394  24.8674665178571 11.5284090909091  C 24.7791108630952 11.6003787878788  24.6744791666667 11.6363636363636  24.5535714285714 11.6363636363636  L 5.80357142857143 11.6363636363636  C 5.68266369047619 11.6363636363636  5.57803199404762 11.6003787878788  5.48967633928571 11.5284090909091  C 5.40132068452381 11.4564393939394  5.35714285714286 11.3712121212121  5.35714285714286 11.2727272727273  L 5.35714285714286 9.09090909090909  C 5.35714285714286 8.99242424242424  5.40132068452381 8.90719696969697  5.48967633928571 8.83522727272727  C 5.57803199404762 8.76325757575757  5.68266369047619 8.72727272727273  5.80357142857143 8.72727272727273  L 24.5535714285714 8.72727272727273  C 24.6744791666667 8.72727272727273  24.7791108630952 8.76325757575757  24.8674665178571 8.83522727272727  Z M 24.8674665178571 4.47159090909091  C 24.9558221726191 4.54356060606061  25 4.62878787878788  25 4.72727272727273  L 25 6.90909090909091  C 25 7.00757575757576  24.9558221726191 7.09280303030303  24.8674665178571 7.16477272727273  C 24.7791108630952 7.23674242424242  24.6744791666667 7.27272727272727  24.5535714285714 7.27272727272727  L 5.80357142857143 7.27272727272727  C 5.68266369047619 7.27272727272727  5.57803199404762 7.23674242424242  5.48967633928571 7.16477272727273  C 5.40132068452381 7.09280303030303  5.35714285714286 7.00757575757576  5.35714285714286 6.90909090909091  L 5.35714285714286 4.72727272727273  C 5.35714285714286 4.62878787878788  5.40132068452381 4.54356060606061  5.48967633928571 4.47159090909091  C 5.57803199404762 4.39962121212121  5.68266369047619 4.36363636363636  5.80357142857143 4.36363636363636  L 24.5535714285714 4.36363636363636  C 24.6744791666667 4.36363636363636  24.7791108630952 4.39962121212121  24.8674665178571 4.47159090909091  Z M 24.8674665178571 0.107954545454545  C 24.9558221726191 0.179924242424242  25 0.265151515151514  25 0.363636363636363  L 25 2.54545454545455  C 25 2.64393939393939  24.9558221726191 2.72916666666666  24.8674665178571 2.80113636363636  C 24.7791108630952 2.87310606060606  24.6744791666667 2.90909090909091  24.5535714285714 3  L 5.80357142857143 3  C 5.68266369047619 2.90909090909091  5.57803199404762 2.87310606060606  5.48967633928571 2.80113636363636  C 5.40132068452381 2.72916666666666  5.35714285714286 2.64393939393939  5.35714285714286 2.54545454545455  L 5.35714285714286 0.363636363636363  C 5.35714285714286 0.265151515151514  5.40132068452381 0.179924242424242  5.48967633928571 0.107954545454545  C 5.57803199404762 0.035984848484846  5.68266369047619 0  5.80357142857143 0  L 24.5535714285714 0  C 24.6744791666667 0  24.7791108630952 0.035984848484846  24.8674665178571 0.107954545454545  Z " fill-rule="nonzero" fill="#555555" stroke="none" fill-opacity="0.811764705882353" transform="matrix(1 0 0 1 1582 209 )" />
  </g>
</svg>