<?xml version="1.0" encoding="utf-8"?>
<svg version="1.1" xmlns:xlink="http://www.w3.org/1999/xlink" width="78px" height="28px" xmlns="http://www.w3.org/2000/svg">
  <defs>
    <mask fill="white" id="clip11">
      <path d="M 78 24  L 78 4  C 78 1.76  75.855 0  73.125 0  L 0 0  L 0 28  L 73.125 28  C 75.855 28  78 26.24  78 24  Z " fill-rule="evenodd" />
    </mask>
  </defs>
  <g transform="matrix(1 0 0 1 -264 -143 )">
    <path d="M 78 24  L 78 4  C 78 1.76  75.855 0  73.125 0  L 0 0  L 0 28  L 73.125 28  C 75.855 28  78 26.24  78 24  Z " fill-rule="nonzero" fill="#ffffff" stroke="none" transform="matrix(1 0 0 1 264 143 )" />
    <path d="M 78 24  L 78 4  C 78 1.76  75.855 0  73.125 0  L 0 0  L 0 28  L 73.125 28  C 75.855 28  78 26.24  78 24  Z " stroke-width="2" stroke="#d9d9d9" fill="none" transform="matrix(1 0 0 1 264 143 )" mask="url(#clip11)" />
  </g>
</svg>