<?xml version="1.0" encoding="utf-8"?>
<svg version="1.1" xmlns:xlink="http://www.w3.org/1999/xlink" width="6px" height="14px" xmlns="http://www.w3.org/2000/svg">
  <g transform="matrix(1 0 0 1 -316 -390 )">
    <path d="M 5.74285714285714 10.3703703703704  C 5.85194805194805 10.3703703703704  5.92727272727273 10.4216820987654  5.96883116883117 10.5243055555556  C 6.01038961038961 10.6269290123457  5.9974025974026 10.7214506172839  5.92987012987013 10.8078703703704  L 3.2025974025974 13.9189814814815  C 3.15064935064935 13.9729938271605  3.09090909090909 14  3.02337662337662 14  C 2.95064935064935 14  2.88831168831169 13.9729938271605  2.83636363636364 13.9189814814815  L 0.0701298701298701 10.8078703703704  C 0.00259740259740259 10.7214506172839  -0.0103896103896104 10.6269290123457  0.0311688311688312 10.5243055555556  C 0.0779220779220779 10.4216820987654  0.153246753246753 10.3703703703704  0.257142857142857 10.3703703703704  L 2 10.3703703703704  L 2 0.259259259259259  C 2.0025974025974 0.18364197530864  2.02597402597403 0.121527777777778  2.07272727272727 0.0729166666666672  C 2.11948051948052 0.0243055555555562  2.17922077922078 0  2.25194805194805 0  L 3.74805194805195 0  C 3.82077922077922 0  3.88051948051948 0.0243055555555562  3.92727272727273 0.0729166666666672  C 3.97402597402597 0.121527777777778  3.9974025974026 0.18364197530864  4 0.259259259259259  L 4 10.3703703703704  L 5.74285714285714 10.3703703703704  Z " fill-rule="nonzero" fill="#4b7902" stroke="none" fill-opacity="0.792156862745098" transform="matrix(1 0 0 1 316 390 )" />
  </g>
</svg>