<?xml version="1.0" encoding="utf-8"?>
<svg version="1.1" xmlns:xlink="http://www.w3.org/1999/xlink" width="12px" height="12px" viewBox="1347 129  12 12" xmlns="http://www.w3.org/2000/svg">
  <path d="M 1353 129  C 1356.36 129  1359 131.64  1359 135  C 1359 138.36  1356.36 141  1353 141  C 1349.64 141  1347 138.36  1347 135  C 1347 131.64  1349.64 129  1353 129  Z " fill-rule="nonzero" fill="#ffffff" stroke="none" />
  <path d="M 1353 129.5  C 1356.08 129.5  1358.5 131.92  1358.5 135  C 1358.5 138.08  1356.08 140.5  1353 140.5  C 1349.92 140.5  1347.5 138.08  1347.5 135  C 1347.5 131.92  1349.92 129.5  1353 129.5  Z " stroke-width="1" stroke="#797979" fill="none" />
  <path d="M 1353 138  C 1351.32 138  1350 136.68  1350 135  C 1350 133.32  1351.32 132  1353 132  C 1354.68 132  1356 133.32  1356 135  C 1356 136.68  1354.68 138  1353 138  " fill-rule="nonzero" fill="#797979" stroke="none" />
</svg>