<?xml version="1.0" encoding="utf-8"?>
<svg version="1.1" xmlns:xlink="http://www.w3.org/1999/xlink" width="12px" height="12px" viewBox="1467 627  12 12" xmlns="http://www.w3.org/2000/svg">
  <path d="M 1473 627  C 1476.36 627  1479 629.64  1479 633  C 1479 636.36  1476.36 639  1473 639  C 1469.64 639  1467 636.36  1467 633  C 1467 629.64  1469.64 627  1473 627  Z " fill-rule="nonzero" fill="#ffffff" stroke="none" />
  <path d="M 1473 627.5  C 1476.08 627.5  1478.5 629.92  1478.5 633  C 1478.5 636.08  1476.08 638.5  1473 638.5  C 1469.92 638.5  1467.5 636.08  1467.5 633  C 1467.5 629.92  1469.92 627.5  1473 627.5  Z " stroke-width="1" stroke="#797979" fill="none" />
  <path d="M 1473 636  C 1471.32 636  1470 634.68  1470 633  C 1470 631.32  1471.32 630  1473 630  C 1474.68 630  1476 631.32  1476 633  C 1476 634.68  1474.68 636  1473 636  " fill-rule="nonzero" fill="#797979" stroke="none" />
</svg>