<?xml version="1.0" encoding="utf-8"?>
<svg version="1.1" xmlns:xlink="http://www.w3.org/1999/xlink" width="12px" height="12px" viewBox="1587 129  12 12" xmlns="http://www.w3.org/2000/svg">
  <path d="M 1593 129  C 1596.36 129  1599 131.64  1599 135  C 1599 138.36  1596.36 141  1593 141  C 1589.64 141  1587 138.36  1587 135  C 1587 131.64  1589.64 129  1593 129  Z " fill-rule="nonzero" fill="#ffffff" stroke="none" />
  <path d="M 1593 129.5  C 1596.08 129.5  1598.5 131.92  1598.5 135  C 1598.5 138.08  1596.08 140.5  1593 140.5  C 1589.92 140.5  1587.5 138.08  1587.5 135  C 1587.5 131.92  1589.92 129.5  1593 129.5  Z " stroke-width="1" stroke="#797979" fill="none" />
  <path d="M 1593 138  C 1591.32 138  1590 136.68  1590 135  C 1590 133.32  1591.32 132  1593 132  C 1594.68 132  1596 133.32  1596 135  C 1596 136.68  1594.68 138  1593 138  " fill-rule="nonzero" fill="#797979" stroke="none" />
</svg>