<?xml version="1.0" encoding="utf-8"?>
<svg version="1.1" xmlns:xlink="http://www.w3.org/1999/xlink" width="12px" height="12px" viewBox="226 1115  12 12" xmlns="http://www.w3.org/2000/svg">
  <path d="M 232 1115  C 235.36 1115  238 1117.64  238 1121  C 238 1124.36  235.36 1127  232 1127  C 228.64 1127  226 1124.36  226 1121  C 226 1117.64  228.64 1115  232 1115  Z " fill-rule="nonzero" fill="#ffffff" stroke="none" />
  <path d="M 232 1115.5  C 235.08 1115.5  237.5 1117.92  237.5 1121  C 237.5 1124.08  235.08 1126.5  232 1126.5  C 228.92 1126.5  226.5 1124.08  226.5 1121  C 226.5 1117.92  228.92 1115.5  232 1115.5  Z " stroke-width="1" stroke="#797979" fill="none" />
  <path d="M 232 1124  C 230.32 1124  229 1122.68  229 1121  C 229 1119.32  230.32 1118  232 1118  C 233.68 1118  235 1119.32  235 1121  C 235 1122.68  233.68 1124  232 1124  " fill-rule="nonzero" fill="#797979" stroke="none" />
</svg>