<?xml version="1.0" encoding="utf-8"?>
<svg version="1.1" xmlns:xlink="http://www.w3.org/1999/xlink" width="12px" height="12px" viewBox="466 1115  12 12" xmlns="http://www.w3.org/2000/svg">
  <path d="M 472 1115  C 475.36 1115  478 1117.64  478 1121  C 478 1124.36  475.36 1127  472 1127  C 468.64 1127  466 1124.36  466 1121  C 466 1117.64  468.64 1115  472 1115  Z " fill-rule="nonzero" fill="#f2f2f2" stroke="none" />
  <path d="M 472 1115.5  C 475.08 1115.5  477.5 1117.92  477.5 1121  C 477.5 1124.08  475.08 1126.5  472 1126.5  C 468.92 1126.5  466.5 1124.08  466.5 1121  C 466.5 1117.92  468.92 1115.5  472 1115.5  Z " stroke-width="1" stroke="#d7d7d7" fill="none" />
  <path d="M 472 1124  C 470.32 1124  469 1122.68  469 1121  C 469 1119.32  470.32 1118  472 1118  C 473.68 1118  475 1119.32  475 1121  C 475 1122.68  473.68 1124  472 1124  " fill-rule="nonzero" fill="#d7d7d7" stroke="none" />
</svg>