<?xml version="1.0" encoding="utf-8"?>
<svg version="1.1" xmlns:xlink="http://www.w3.org/1999/xlink" width="12px" height="12px" viewBox="1467 129  12 12" xmlns="http://www.w3.org/2000/svg">
  <path d="M 1473 129  C 1476.36 129  1479 131.64  1479 135  C 1479 138.36  1476.36 141  1473 141  C 1469.64 141  1467 138.36  1467 135  C 1467 131.64  1469.64 129  1473 129  Z " fill-rule="nonzero" fill="#ffffff" stroke="none" />
  <path d="M 1473 129.5  C 1476.08 129.5  1478.5 131.92  1478.5 135  C 1478.5 138.08  1476.08 140.5  1473 140.5  C 1469.92 140.5  1467.5 138.08  1467.5 135  C 1467.5 131.92  1469.92 129.5  1473 129.5  Z " stroke-width="1" stroke="#797979" fill="none" />
  <path d="M 1473 138  C 1471.32 138  1470 136.68  1470 135  C 1470 133.32  1471.32 132  1473 132  C 1474.68 132  1476 133.32  1476 135  C 1476 136.68  1474.68 138  1473 138  " fill-rule="nonzero" fill="#797979" stroke="none" />
</svg>