<?xml version="1.0" encoding="utf-8"?>
<svg version="1.1" xmlns:xlink="http://www.w3.org/1999/xlink" width="12px" height="12px" viewBox="1431 1115  12 12" xmlns="http://www.w3.org/2000/svg">
  <path d="M 1437 1115  C 1440.36 1115  1443 1117.64  1443 1121  C 1443 1124.36  1440.36 1127  1437 1127  C 1433.64 1127  1431 1124.36  1431 1121  C 1431 1117.64  1433.64 1115  1437 1115  Z " fill-rule="nonzero" fill="#ffffff" stroke="none" />
  <path d="M 1437 1115.5  C 1440.08 1115.5  1442.5 1117.92  1442.5 1121  C 1442.5 1124.08  1440.08 1126.5  1437 1126.5  C 1433.92 1126.5  1431.5 1124.08  1431.5 1121  C 1431.5 1117.92  1433.92 1115.5  1437 1115.5  Z " stroke-width="1" stroke="#797979" fill="none" />
  <path d="M 1437 1124  C 1435.32 1124  1434 1122.68  1434 1121  C 1434 1119.32  1435.32 1118  1437 1118  C 1438.68 1118  1440 1119.32  1440 1121  C 1440 1122.68  1438.68 1124  1437 1124  " fill-rule="nonzero" fill="#797979" stroke="none" />
</svg>