<?xml version="1.0" encoding="utf-8"?>
<svg version="1.1" xmlns:xlink="http://www.w3.org/1999/xlink" width="12px" height="12px" viewBox="346 1115  12 12" xmlns="http://www.w3.org/2000/svg">
  <path d="M 352 1115  C 355.36 1115  358 1117.64  358 1121  C 358 1124.36  355.36 1127  352 1127  C 348.64 1127  346 1124.36  346 1121  C 346 1117.64  348.64 1115  352 1115  Z " fill-rule="nonzero" fill="#f2f2f2" stroke="none" />
  <path d="M 352 1115.5  C 355.08 1115.5  357.5 1117.92  357.5 1121  C 357.5 1124.08  355.08 1126.5  352 1126.5  C 348.92 1126.5  346.5 1124.08  346.5 1121  C 346.5 1117.92  348.92 1115.5  352 1115.5  Z " stroke-width="1" stroke="#d7d7d7" fill="none" />
  <path d="M 352 1124  C 350.32 1124  349 1122.68  349 1121  C 349 1119.32  350.32 1118  352 1118  C 353.68 1118  355 1119.32  355 1121  C 355 1122.68  353.68 1124  352 1124  " fill-rule="nonzero" fill="#d7d7d7" stroke="none" />
</svg>