<?xml version="1.0" encoding="utf-8"?>
<svg version="1.1" xmlns:xlink="http://www.w3.org/1999/xlink" width="12px" height="12px" viewBox="199 311  12 12" xmlns="http://www.w3.org/2000/svg">
  <path d="M 205 311  C 208.36 311  211 313.64  211 317  C 211 320.36  208.36 323  205 323  C 201.64 323  199 320.36  199 317  C 199 313.64  201.64 311  205 311  Z " fill-rule="nonzero" fill="#ffffff" stroke="none" />
  <path d="M 205 311.5  C 208.08 311.5  210.5 313.92  210.5 317  C 210.5 320.08  208.08 322.5  205 322.5  C 201.92 322.5  199.5 320.08  199.5 317  C 199.5 313.92  201.92 311.5  205 311.5  Z " stroke-width="1" stroke="#797979" fill="none" />
  <path d="M 205 320  C 203.32 320  202 318.68  202 317  C 202 315.32  203.32 314  205 314  C 206.68 314  208 315.32  208 317  C 208 318.68  206.68 320  205 320  " fill-rule="nonzero" fill="#797979" stroke="none" />
</svg>