<?xml version="1.0" encoding="utf-8"?>
<svg version="1.1" xmlns:xlink="http://www.w3.org/1999/xlink" width="12px" height="12px" viewBox="752 313  12 12" xmlns="http://www.w3.org/2000/svg">
  <path d="M 758 313  C 761.36 313  764 315.64  764 319  C 764 322.36  761.36 325  758 325  C 754.64 325  752 322.36  752 319  C 752 315.64  754.64 313  758 313  Z " fill-rule="nonzero" fill="#ffffff" stroke="none" />
  <path d="M 758 313.5  C 761.08 313.5  763.5 315.92  763.5 319  C 763.5 322.08  761.08 324.5  758 324.5  C 754.92 324.5  752.5 322.08  752.5 319  C 752.5 315.92  754.92 313.5  758 313.5  Z " stroke-width="1" stroke="#797979" fill="none" />
  <path d="M 758 322  C 756.32 322  755 320.68  755 319  C 755 317.32  756.32 316  758 316  C 759.68 316  761 317.32  761 319  C 761 320.68  759.68 322  758 322  " fill-rule="nonzero" fill="#797979" stroke="none" />
</svg>