<?xml version="1.0" encoding="utf-8"?>
<svg version="1.1" xmlns:xlink="http://www.w3.org/1999/xlink" width="16px" height="11px" xmlns="http://www.w3.org/2000/svg">
  <g transform="matrix(1 0 0 1 -297 -782 )">
    <path d="M 12.125 9.947265625  C 12.2467948717949 9.85655381944444  12.3076923076923 9.74913194444444  12.3076923076923 9.625  C 12.3076923076923 9.50086805555556  12.2467948717949 9.39344618055556  12.125 9.302734375  C 12.0032051282051 9.21202256944444  11.8589743589744 9.16666666666667  11.6923076923077 9.16666666666667  C 11.525641025641 9.16666666666667  11.3814102564103 9.21202256944444  11.2596153846154 9.302734375  C 11.1378205128205 9.39344618055556  11.0769230769231 9.50086805555556  11.0769230769231 9.625  C 11.0769230769231 9.74913194444444  11.1378205128205 9.85655381944444  11.2596153846154 9.947265625  C 11.3814102564103 10.0379774305556  11.525641025641 10.0833333333333  11.6923076923077 10.0833333333333  C 11.8589743589744 10.0833333333333  12.0032051282051 10.0379774305556  12.125 9.947265625  Z M 14.5865384615385 9.947265625  C 14.7083333333333 9.85655381944444  14.7692307692308 9.74913194444444  14.7692307692308 9.625  C 14.7692307692308 9.50086805555556  14.7083333333333 9.39344618055556  14.5865384615385 9.302734375  C 14.4647435897436 9.21202256944444  14.3205128205128 9.16666666666667  14.1538461538462 9.16666666666667  C 13.9871794871795 9.16666666666667  13.8429487179487 9.21202256944444  13.7211538461538 9.302734375  C 13.599358974359 9.39344618055556  13.5384615384615 9.50086805555556  13.5384615384615 9.625  C 13.5384615384615 9.74913194444444  13.599358974359 9.85655381944444  13.7211538461538 9.947265625  C 13.8429487179487 10.0379774305556  13.9871794871795 10.0833333333333  14.1538461538462 10.0833333333333  C 14.3205128205128 10.0833333333333  14.4647435897436 10.0379774305556  14.5865384615385 9.947265625  Z M 15.7307692307692 7.53385416666667  C 15.9102564102564 7.66753472222222  16 7.82986111111111  16 8.02083333333333  L 16 10.3125  C 16 10.5034722222222  15.9102564102564 10.6657986111111  15.7307692307692 10.7994791666667  C 15.5512820512821 10.9331597222222  15.3333333333333 11  15.0769230769231 11  L 0.923076923076923 11  C 0.666666666666667 11  0.448717948717949 10.9331597222222  0.269230769230769 10.7994791666667  C 0.0897435897435897 10.6657986111111  0 10.5034722222222  0 10.3125  L 0 8.02083333333333  C 0 7.82986111111111  0.0897435897435897 7.66753472222222  0.269230769230769 7.53385416666667  C 0.448717948717949 7.40017361111111  0.666666666666667 7.33333333333333  0.923076923076923 7.33333333333333  L 5.39423076923077 7.33333333333333  L 6.69230769230769 8.30729166666667  C 7.06410256410256 8.57465277777778  7.5 8.70833333333333  8 8.70833333333333  C 8.5 8.70833333333333  8.93589743589744 8.57465277777778  9.30769230769231 8.30729166666667  L 10.6153846153846 7.33333333333333  L 15.0769230769231 7.33333333333333  C 15.3333333333333 7.33333333333333  15.5512820512821 7.40017361111111  15.7307692307692 7.53385416666667  Z M 12.3076923076923 3.66666666666667  C 12.5769230769231 3.66666666666667  12.7660256410256 3.759765625  12.875 3.94596354166667  C 12.9839743589744 4.14171006944444  12.9391025641026 4.30881076388889  12.7403846153846 4.447265625  L 8.43269230769231 7.65559895833333  C 8.31730769230769 7.74631076388889  8.17307692307692 7.79166666666667  8 7.79166666666667  C 7.82692307692308 7.79166666666667  7.68269230769231 7.74631076388889  7.56730769230769 7.65559895833333  L 3.25961538461538 4.447265625  C 3.06089743589744 4.30881076388889  3.01602564102564 4.14171006944444  3.125 3.94596354166667  C 3.23397435897436 3.759765625  3.42307692307692 3.66666666666667  3.69230769230769 3.66666666666667  L 6.15384615384615 3.66666666666667  L 6.15384615384615 0.458333333333333  C 6.15384615384615 0.334201388888887  6.21474358974359 0.226779513888887  6.33653846153846 0.136067708333333  C 6.45833333333333 0.0453559027777785  6.6025641025641 0  6.76923076923077 0  L 9.23076923076923 0  C 9.3974358974359 0  9.54166666666667 0.0453559027777785  9.66346153846154 0.136067708333333  C 9.78525641025641 0.226779513888887  9.84615384615385 0.334201388888887  9.84615384615385 0.458333333333333  L 9.84615384615385 3.66666666666667  L 12.3076923076923 3.66666666666667  Z " fill-rule="nonzero" fill="#666666" stroke="none" transform="matrix(1 0 0 1 297 782 )" />
  </g>
</svg>