<?xml version="1.0" encoding="utf-8"?>
<svg version="1.1" xmlns:xlink="http://www.w3.org/1999/xlink" width="116px" height="40px" xmlns="http://www.w3.org/2000/svg">
  <g transform="matrix(1 0 0 1 -697 -1752 )">
    <path d="M 698 1757  A 4 4 0 0 1 702 1753 L 808 1753  A 4 4 0 0 1 812 1757 L 812 1787  A 4 4 0 0 1 808 1791 L 702 1791  A 4 4 0 0 1 698 1787 L 698 1757  Z " fill-rule="nonzero" fill="#ffffff" stroke="none" />
    <path d="M 697.5 1757  A 4.5 4.5 0 0 1 702 1752.5 L 808 1752.5  A 4.5 4.5 0 0 1 812.5 1757 L 812.5 1787  A 4.5 4.5 0 0 1 808 1791.5 L 702 1791.5  A 4.5 4.5 0 0 1 697.5 1787 L 697.5 1757  Z " stroke-width="1" stroke="#000000" fill="none" stroke-opacity="0.847058823529412" />
  </g>
</svg>