<?xml version="1.0" encoding="utf-8"?>
<svg version="1.1" xmlns:xlink="http://www.w3.org/1999/xlink" width="20px" height="20px" xmlns="http://www.w3.org/2000/svg">
  <g transform="matrix(1 0 0 1 -31 -204 )">
    <path d="M 5.40178571428571 14.9431818181818  C 5.61011904761905 15.2083333333333  5.71428571428571 15.530303030303  5.71428571428571 15.9090909090909  L 5.71428571428571 18.6363636363636  C 5.71428571428571 19.0151515151515  5.61011904761905 19.3371212121212  5.40178571428571 19.6022727272727  C 5.19345238095238 19.8674242424242  4.94047619047619 20  4.64285714285714 20  L 1.07142857142857 20  C 0.773809523809524 20  0.520833333333333 19.8674242424242  0.3125 19.6022727272727  C 0.104166666666667 19.3371212121212  0 19.0151515151515  0 18.6363636363636  L 0 15.9090909090909  C 0 15.530303030303  0.104166666666667 15.2083333333333  0.3125 14.9431818181818  C 0.520833333333333 14.6780303030303  0.773809523809524 14.5454545454545  1.07142857142857 14.5454545454545  L 4.64285714285714 14.5454545454545  C 4.94047619047619 14.5454545454545  5.19345238095238 14.6780303030303  5.40178571428571 14.9431818181818  Z M 5.40178571428571 7.67045454545455  C 5.61011904761905 7.93560606060606  5.71428571428571 8.25757575757576  5.71428571428571 8.63636363636363  L 5.71428571428571 11.3636363636364  C 5.71428571428571 11.7424242424242  5.61011904761905 12.0643939393939  5.40178571428571 12.3295454545455  C 5.19345238095238 12.594696969697  4.94047619047619 12.7272727272727  4.64285714285714 12.7272727272727  L 1.07142857142857 12.7272727272727  C 0.773809523809524 12.7272727272727  0.520833333333333 12.594696969697  0.3125 12.3295454545455  C 0.104166666666667 12.0643939393939  0 11.7424242424242  0 11.3636363636364  L 0 8.63636363636363  C 0 8.25757575757576  0.104166666666667 7.93560606060606  0.3125 7.67045454545455  C 0.520833333333333 7.40530303030303  0.773809523809524 7.27272727272727  1.07142857142857 7.27272727272727  L 4.64285714285714 7.27272727272727  C 4.94047619047619 7.27272727272727  5.19345238095238 7.40530303030303  5.40178571428571 7.67045454545455  Z M 12.5446428571429 14.9431818181818  C 12.7529761904762 15.2083333333333  12.8571428571429 15.530303030303  12.8571428571429 15.9090909090909  L 12.8571428571429 18.6363636363636  C 12.8571428571429 19.0151515151515  12.7529761904762 19.3371212121212  12.5446428571429 19.6022727272727  C 12.3363095238095 19.8674242424242  12.0833333333333 20  11.7857142857143 20  L 8.21428571428571 20  C 7.91666666666667 20  7.66369047619048 19.8674242424242  7.45535714285714 19.6022727272727  C 7.24702380952381 19.3371212121212  7.14285714285714 19.0151515151515  7.14285714285714 18.6363636363636  L 7.14285714285714 15.9090909090909  C 7.14285714285714 15.530303030303  7.24702380952381 15.2083333333333  7.45535714285714 14.9431818181818  C 7.66369047619048 14.6780303030303  7.91666666666667 14.5454545454545  8.21428571428571 14.5454545454545  L 11.7857142857143 14.5454545454545  C 12.0833333333333 14.5454545454545  12.3363095238095 14.6780303030303  12.5446428571429 14.9431818181818  Z M 5.40178571428571 0.397727272727273  C 5.61011904761905 0.662878787878787  5.71428571428571 0.984848484848484  5.71428571428571 1.36363636363636  L 5.71428571428571 4.09090909090909  C 5.71428571428571 4.46969696969697  5.61011904761905 4.79166666666667  5.40178571428571 5.05681818181818  C 5.19345238095238 5.3219696969697  4.94047619047619 5.45454545454545  4.64285714285714 5.45454545454545  L 1.07142857142857 5.45454545454545  C 0.773809523809524 5.45454545454545  0.520833333333333 5.3219696969697  0.3125 5.05681818181818  C 0.104166666666667 4.79166666666667  0 4.46969696969697  0 4.09090909090909  L 0 1.36363636363636  C 0 0.984848484848484  0.104166666666667 0.662878787878787  0.3125 0.397727272727273  C 0.520833333333333 0.132575757575757  0.773809523809524 0  1.07142857142857 0  L 4.64285714285714 0  C 4.94047619047619 0  5.19345238095238 0.132575757575757  5.40178571428571 0.397727272727273  Z M 12.5446428571429 7.67045454545455  C 12.7529761904762 7.93560606060606  12.8571428571429 8.25757575757576  12.8571428571429 8.63636363636363  L 12.8571428571429 11.3636363636364  C 12.8571428571429 11.7424242424242  12.7529761904762 12.0643939393939  12.5446428571429 12.3295454545455  C 12.3363095238095 12.594696969697  12.0833333333333 12.7272727272727  11.7857142857143 12.7272727272727  L 8.21428571428571 12.7272727272727  C 7.91666666666667 12.7272727272727  7.66369047619048 12.594696969697  7.45535714285714 12.3295454545455  C 7.24702380952381 12.0643939393939  7.14285714285714 11.7424242424242  7.14285714285714 11.3636363636364  L 7.14285714285714 8.63636363636363  C 7.14285714285714 8.25757575757576  7.24702380952381 7.93560606060606  7.45535714285714 7.67045454545455  C 7.66369047619048 7.40530303030303  7.91666666666667 7.27272727272727  8.21428571428571 7.27272727272727  L 11.7857142857143 7.27272727272727  C 12.0833333333333 7.27272727272727  12.3363095238095 7.40530303030303  12.5446428571429 7.67045454545455  Z M 19.6875 14.9431818181818  C 19.8958333333333 15.2083333333333  20 15.530303030303  20 15.9090909090909  L 20 18.6363636363636  C 20 19.0151515151515  19.8958333333333 19.3371212121212  19.6875 19.6022727272727  C 19.4791666666667 19.8674242424242  19.2261904761905 20  18.9285714285714 20  L 15.3571428571429 20  C 15.0595238095238 20  14.8065476190476 19.8674242424242  14.5982142857143 19.6022727272727  C 14.389880952381 19.3371212121212  14.2857142857143 19.0151515151515  14.2857142857143 18.6363636363636  L 14.2857142857143 15.9090909090909  C 14.2857142857143 15.530303030303  14.389880952381 15.2083333333333  14.5982142857143 14.9431818181818  C 14.8065476190476 14.6780303030303  15.0595238095238 14.5454545454545  15.3571428571429 14.5454545454545  L 18.9285714285714 14.5454545454545  C 19.2261904761905 14.5454545454545  19.4791666666667 14.6780303030303  19.6875 14.9431818181818  Z M 12.5446428571429 0.397727272727273  C 12.7529761904762 0.662878787878787  12.8571428571429 0.984848484848484  12.8571428571429 1.36363636363636  L 12.8571428571429 4.09090909090909  C 12.8571428571429 4.46969696969697  12.7529761904762 4.79166666666667  12.5446428571429 5.05681818181818  C 12.3363095238095 5.3219696969697  12.0833333333333 5.45454545454545  11.7857142857143 5.45454545454545  L 8.21428571428571 5.45454545454545  C 7.91666666666667 5.45454545454545  7.66369047619048 5.3219696969697  7.45535714285714 5.05681818181818  C 7.24702380952381 4.79166666666667  7.14285714285714 4.46969696969697  7.14285714285714 4.09090909090909  L 7.14285714285714 1.36363636363636  C 7.14285714285714 0.984848484848484  7.24702380952381 0.662878787878787  7.45535714285714 0.397727272727273  C 7.66369047619048 0.132575757575757  7.91666666666667 0  8.21428571428571 0  L 11.7857142857143 0  C 12.0833333333333 0  12.3363095238095 0.132575757575757  12.5446428571429 0.397727272727273  Z M 19.6875 7.67045454545455  C 19.8958333333333 7.93560606060606  20 8.25757575757576  20 8.63636363636363  L 20 11.3636363636364  C 20 11.7424242424242  19.8958333333333 12.0643939393939  19.6875 12.3295454545455  C 19.4791666666667 12.594696969697  19.2261904761905 12.7272727272727  18.9285714285714 12.7272727272727  L 15.3571428571429 12.7272727272727  C 15.0595238095238 12.7272727272727  14.8065476190476 12.594696969697  14.5982142857143 12.3295454545455  C 14.389880952381 12.0643939393939  14.2857142857143 11.7424242424242  14.2857142857143 11.3636363636364  L 14.2857142857143 8.63636363636363  C 14.2857142857143 8.25757575757576  14.389880952381 7.93560606060606  14.5982142857143 7.67045454545455  C 14.8065476190476 7.40530303030303  15.0595238095238 7.27272727272727  15.3571428571429 7.27272727272727  L 18.9285714285714 7.27272727272727  C 19.2261904761905 7.27272727272727  19.4791666666667 7.40530303030303  19.6875 7.67045454545455  Z M 19.6875 0.397727272727273  C 19.8958333333333 0.662878787878787  20 0.984848484848484  20 1.36363636363636  L 20 4.09090909090909  C 20 4.46969696969697  19.8958333333333 4.79166666666667  19.6875 5.05681818181818  C 19.4791666666667 5.3219696969697  19.2261904761905 5.45454545454545  18.9285714285714 5.45454545454545  L 15.3571428571429 5.45454545454545  C 15.0595238095238 5.45454545454545  14.8065476190476 5.3219696969697  14.5982142857143 5.05681818181818  C 14.389880952381 4.79166666666667  14.2857142857143 4.46969696969697  14.2857142857143 4.09090909090909  L 14.2857142857143 1.36363636363636  C 14.2857142857143 0.984848484848484  14.389880952381 0.662878787878787  14.5982142857143 0.397727272727273  C 14.8065476190476 0.132575757575757  15.0595238095238 0  15.3571428571429 0  L 18.9285714285714 0  C 19.2261904761905 0  19.4791666666667 0.132575757575757  19.6875 0.397727272727273  Z " fill-rule="nonzero" fill="#555555" stroke="none" transform="matrix(1 0 0 1 31 204 )" />
  </g>
</svg>